<?xml version="1.0" standalone="no"?>
<!DOCTYPE svg PUBLIC "-//W3C//DTD SVG 20010904//EN"
 "http://www.w3.org/TR/2001/REC-SVG-20010904/DTD/svg10.dtd">
<svg version="1.0" xmlns="http://www.w3.org/2000/svg"
 width="113.000000pt" height="34.000000pt" viewBox="0 0 113.000000 34.000000"
 preserveAspectRatio="xMidYMid meet">

<g transform="translate(0.000000,34.000000) scale(0.100000,-0.100000)"
fill="#000000" stroke="none">
<path d="M610 231 c0 -5 4 -11 9 -13 5 -1 10 -21 12 -43 4 -58 15 -75 49 -75
34 0 40 15 10 23 -17 4 -20 14 -20 61 0 56 0 56 -30 56 -16 0 -30 -4 -30 -9z"/>
<path d="M60 160 l0 -60 34 0 c42 0 66 22 66 60 0 38 -24 60 -66 60 l-34 0 0
-60z m60 0 c0 -16 -4 -32 -10 -35 -6 -4 -10 10 -10 35 0 25 4 39 10 35 6 -3
10 -19 10 -35z"/>
<path d="M500 160 c0 -53 2 -60 20 -60 13 0 20 7 20 20 0 13 7 20 18 20 24 0
42 19 42 46 0 25 -17 34 -66 34 l-34 0 0 -60z m60 20 c0 -11 -4 -20 -10 -20
-5 0 -10 9 -10 20 0 11 5 20 10 20 6 0 10 -9 10 -20z"/>
<path d="M182 178 c-15 -15 -15 -51 0 -66 16 -16 81 -16 75 1 -2 6 -11 11 -20
9 -8 -1 -18 2 -22 8 -4 6 6 10 24 10 19 0 31 5 31 13 0 21 -22 37 -50 37 -14
0 -31 -5 -38 -12z"/>
<path d="M280 184 c0 -4 5 -24 12 -45 9 -31 16 -39 35 -39 23 0 29 9 47 68 6
18 4 22 -13 22 -14 0 -21 -6 -21 -20 0 -11 -4 -20 -9 -20 -5 0 -11 9 -14 20
-5 18 -37 30 -37 14z"/>
<path d="M722 148 l3 -43 48 -3 47 -3 0 45 c0 39 -3 46 -20 46 -15 0 -20 -7
-20 -29 0 -17 -4 -33 -10 -36 -6 -4 -10 8 -10 29 0 30 -4 36 -21 36 -18 0 -20
-5 -17 -42z"/>
<path d="M843 182 c-7 -4 -11 -29 -10 -62 2 -50 4 -55 26 -58 12 -2 34 -1 47
2 30 8 33 46 4 53 -17 5 -18 7 -6 17 8 6 17 21 21 34 6 20 3 22 -32 22 -21 0
-43 -4 -50 -8z m47 -92 c0 -5 -7 -10 -15 -10 -8 0 -15 5 -15 10 0 6 7 10 15
10 8 0 15 -4 15 -10z"/>
<path d="M952 178 c-19 -19 -15 -28 21 -43 28 -13 29 -15 7 -13 -14 2 -27 -1
-30 -7 -9 -18 65 -18 80 1 12 14 12 18 -5 30 -10 8 -13 14 -7 14 7 0 12 7 12
15 0 19 -60 21 -78 3z"/>
</g>
</svg>
