<?xml version="1.0" standalone="no"?>
<!DOCTYPE svg PUBLIC "-//W3C//DTD SVG 20010904//EN"
 "http://www.w3.org/TR/2001/REC-SVG-20010904/DTD/svg10.dtd">
<svg version="1.0" xmlns="http://www.w3.org/2000/svg"
 width="113.000000pt" height="34.000000pt" viewBox="0 0 113.000000 34.000000"
 preserveAspectRatio="xMidYMid meet">

<g transform="translate(0.000000,34.000000) scale(0.100000,-0.100000)"
fill="#000000" stroke="none">
<path d="M0 170 l0 -170 565 0 565 0 0 170 0 170 -565 0 -565 0 0 -170z m122
33 c41 -37 10 -103 -49 -103 l-33 0 0 60 0 60 32 0 c17 0 40 -7 50 -17z m118
7 c0 -5 -11 -10 -25 -10 -16 0 -25 -6 -25 -15 0 -8 9 -15 20 -15 11 0 20 -4
20 -10 0 -5 -9 -10 -20 -10 -11 0 -20 -7 -20 -15 0 -9 9 -15 25 -15 14 0 25
-4 25 -10 0 -5 -18 -10 -40 -10 l-40 0 0 60 0 60 40 0 c22 0 40 -4 40 -10z
m57 -32 l9 -43 13 43 c7 25 18 42 26 42 18 0 18 0 -1 -66 -13 -44 -19 -54 -38
-54 -18 0 -24 10 -38 60 -15 57 -15 60 2 60 12 0 20 -12 27 -42z m277 20 c14
-23 -3 -52 -33 -56 -13 -2 -21 -11 -21 -23 0 -12 -7 -19 -20 -19 -18 0 -20 7
-20 61 l0 60 41 -3 c27 -2 46 -9 53 -20z m56 -28 c0 -47 2 -50 25 -50 14 0 25
-4 25 -10 0 -5 -18 -10 -40 -10 l-40 0 0 60 c0 47 3 60 15 60 11 0 15 -12 15
-50z m102 3 c4 -66 28 -70 28 -4 0 39 4 51 15 51 19 0 21 -90 3 -108 -15 -15
-51 -15 -66 0 -18 18 -16 108 2 108 11 0 16 -14 18 -47z m157 32 c-1 -5 -10
-9 -20 -7 -20 3 -33 -28 -24 -58 6 -20 35 -28 35 -10 0 6 -4 10 -10 10 -5 0
-10 5 -10 10 0 6 11 10 25 10 20 0 25 -5 25 -24 0 -37 -49 -49 -82 -19 -38 34
-9 107 39 101 13 -2 23 -7 22 -13z m113 0 c-2 -5 -12 -9 -22 -7 -29 5 -24 -15
7 -30 34 -16 38 -31 17 -52 -18 -18 -83 -19 -74 -1 3 6 15 9 28 7 30 -4 28 16
-3 28 -53 20 -38 74 19 68 17 -2 30 -7 28 -13z"/>
<path d="M80 158 c1 -38 2 -41 14 -25 14 18 11 53 -5 63 -5 3 -9 -14 -9 -38z"/>
<path d="M520 180 c0 -19 11 -26 23 -14 8 8 -3 34 -14 34 -5 0 -9 -9 -9 -20z"/>
</g>
</svg>
